<?xml version="1.0" encoding="utf-8"?>
<!-- Generator: Adobe Illustrator 12.0.0, SVG Export Plug-In . SVG Version: 6.00 Build 51448)  -->
<!DOCTYPE svg PUBLIC "-//W3C//DTD SVG 1.1//EN" "http://www.w3.org/Graphics/SVG/1.1/DTD/svg11.dtd" [
	<!ENTITY ns_svg "http://www.w3.org/2000/svg">
	<!ENTITY ns_xlink "http://www.w3.org/1999/xlink">
]>
<svg  version="1.1" id="Layer_1" xmlns="&ns_svg;" xmlns:xlink="&ns_xlink;" width="724.23" height="339" viewBox="0 0 724.23 339"
	 overflow="visible" enable-background="new 0 0 724.23 339" xml:space="preserve">
<path fill="#FFFFFF" d="M467.61,264.73c1.93,3.55,3.819,7.14,5.64,10.76c-3.76,0.01-7.51,0.01-11.27,0
	C463.88,271.92,465.84,268.37,467.61,264.73z"/>
<g>
	<g>
		<path fill="#962F33" d="M355.94,0h0.35c4.08,3.81,7.87,7.92,11.93,11.76c1.04,1.25,2.79,2.3,2.72,4.13
			c0.2,7.48-0.01,14.96,0.041,22.44c4.979-3.72,10.699-6.68,17.02-7.02c17.58,17.86,35.5,35.39,53.29,53.03
			c-0.49,6.64-3.8,12.58-7.9,17.68c8.49-0.04,16.971,0,25.46-0.03c4.69,4.83,9.631,9.39,14.42,14.12
			c-4.729,4.71-9.43,9.45-14.18,14.15c-8.32-0.04-16.64,0.03-24.96-0.04c3.99,5.26,7.32,11.46,6.92,18.28
			c-17.819,16.7-34.38,34.74-52.3,51.319c-6.64,0.471-12.62-3.259-17.77-7.039c0.029,8.359,0.01,16.72,0.029,25.08
			c-4.97,4.95-9.9,9.95-14.91,14.85c-4.53-4.479-8.99-9.04-13.56-13.49c-0.08-8.62-0.06-17.25,0-25.87
			c-4.14,2.801-8.52,5.59-13.56,6.34c-2.7,0.391-5.98,0.621-7.9-1.729c-15.99-16.16-32.24-32.05-48.37-48.07
			c-0.71-7.35,2.8-14.11,7.25-19.67c-8.93,0.07-17.87,0.02-26.8,0.02c-4.91-4.51-9.57-9.27-14.28-13.99
			c4.75-4.75,9.5-9.5,14.26-14.25c9.05,0.01,18.09-0.02,27.14,0.01c-4.36-5.59-8.14-12.25-7.44-19.61
			c17.12-17.02,34.39-33.87,51.36-51.04c6.82-0.15,13.02,3.02,18.33,7.03c-0.03-8.39-0.09-16.77,0.03-25.16
			C347.11,8.91,351.38,4.31,355.94,0z M301,59.51c0.06,10.55-0.11,21.11,0.07,31.67c0.86,6.62,8.12,9.63,13.94,10.63
			c9.14,0.46,18.33,0.06,27.49,0.19c-0.04-10.01,0.05-20.02-0.03-30.02c-0.66-5.86-4.89-12.74-11.52-12.49
			C320.97,59.49,310.98,59.5,301,59.51z M371.04,71.88c-0.11,10.04-0.011,20.08-0.03,30.12c7.66,0,15.32-0.02,22.98,0.03
			c4.93,0.13,9.87-1.37,14.01-4.02c3.029-1.91,5.23-5.31,5-8.98c0.01-9.84-0.01-19.68,0-29.53c-10.32,0.02-20.64-0.05-30.96,0.02
			C375.68,59.56,371.67,66.2,371.04,71.88z M300.84,141.02c-0.24,10.32-0.02,20.65-0.09,30.98c10.12-0.01,20.24,0.02,30.35,0
			c6.04,0.2,10.48-5.49,11.35-10.98c0.13-10.26,0-20.52,0.05-30.77c-9.48,0.09-18.97-0.17-28.44,0.1
			C308.38,131.32,301.49,134.56,300.84,141.02z M371.02,130.24c0,9.29-0.08,18.57,0.01,27.85c0.551,6.31,4.721,13.96,11.9,13.891
			C392.95,172.05,402.98,171.97,413,172c-0.03-10.03,0.061-20.06-0.03-30.09c0.141-6.42-6.159-10.81-11.96-11.61
			C391.02,130.15,381.02,130.31,371.02,130.24z"/>
	</g>
</g>
<g>
	<path fill="#242021" d="M530.72,249.49c2.03,0.01,4.07,0.01,6.12,0.04c-2.9,2.58-5.38,5.67-8.7,7.75
		C528.811,254.62,529.779,252.061,530.72,249.49z"/>
	<path fill="#242021" d="M54.85,258.96c5.24-0.94,10.64-0.399,15.94-0.279c-1.53,0.85-3.27,1.13-4.96,1.459
		c-1.02,4.561-0.48,9.271-0.57,13.91c0.19,3.46-0.08,8.17,3.71,9.851c5.28,2.6,14.45,0.93,15.3-5.92
		c0.4-5.88,0.41-11.851-0.11-17.73c-1.65-0.39-3.29-0.8-4.919-1.22c7.05-1.261,14.34-0.13,21.48-0.591
		c7.03,6.78,13.83,13.811,20.79,20.671c-0.27-6.311,0.561-12.7-0.53-18.95c-1.73-0.37-3.45-0.729-5.16-1.16
		c4.41-0.83,9.109-0.85,13.51,0.01c-1.72,0.81-5.39,0.2-5.3,2.921c-0.12,8.489,0.07,16.989-0.08,25.489
		c-2.56-1.489-4.43-3.81-6.521-5.851c-5.64-5.639-11.27-11.3-16.93-16.919c0.01,5.119,0,10.229-0.02,15.35
		c0.03,1.58-0.08,3.28,0.77,4.7c1.59,0.54,3.25,0.86,4.87,1.31c-4.42,0.87-9.08,0.74-13.52,0.04c1.82-0.86,5.41-0.319,5.44-3.149
		c0.52-6.75-0.02-13.54,0.28-20.3c-2.59-3.021-8.271-4.711-11.17-1.49c-0.63,6.25,0.54,12.63-0.67,18.829
		c-1,4.32-5.49,6.591-9.59,6.971c-4.07,0.25-8.45,0.4-12.14-1.65c-2.58-1.39-4.23-4.18-4.38-7.09c-0.4-5.42,0.14-10.859-0.22-16.28
		C60.1,259.22,56.6,259.811,54.85,258.96z"/>
	<path fill="#242021" d="M129.65,259.01c5.02-1.149,10.25-0.22,15.35-0.529c0,0.209,0,0.64,0,0.85c-1.75,0.43-4.82,0.16-4.68,2.75
		c-0.13,6.96-0.13,13.939,0,20.9c-0.06,2.55,2.93,2.239,4.68,2.68c-0.01,0.21-0.01,0.65-0.02,0.859
		c-5.1-0.31-10.32,0.591-15.34-0.52c2.201-0.66,6.101-0.561,5.55-3.95c-0.06-7.26,0.51-14.59-0.4-21.8
		C133.07,259.84,131.35,259.46,129.65,259.01z"/>
	<path fill="#242021" d="M146.11,258.95c5-0.931,10.16-0.39,15.21-0.27c-1.44,0.829-3.23,1.159-4.41,2.359
		c2.57,6.72,6.59,12.84,9.78,19.3c3.1-6.4,6.58-12.62,9.32-19.18c-1.42-0.86-2.88-1.66-4.31-2.521c3.86-0.22,7.73-0.2,11.59-0.029
		c-1.94,1.27-4.25,2.26-5.28,4.479c-4.18,7.92-7.89,16.091-12.14,23.971c-0.32-0.13-0.97-0.391-1.29-0.521
		c-4.67-8.09-8.71-16.55-13.33-24.67C150.26,259.92,147.9,259.74,146.11,258.95z"/>
	<path fill="#242021" d="M183.55,259.03c1.44-0.43,2.94-0.6,4.45-0.561c7.49,0.04,14.99,0.04,22.48,0.011
		c0.19,2.339,0.32,4.68,0.22,7.029c-1.57-1.699-2.09-4.829-4.78-5.05c-3.96-0.45-7.95-0.13-11.92-0.21c0,3.58,0,7.16,0,10.74
		c3.53-0.11,7.14,0.39,10.61-0.41c1.4-0.979,1.82-2.86,3.01-4.07c0.23,3.61,0.2,7.25-0.06,10.86c-0.96-1.4-1.6-3.051-2.86-4.2
		c-3.5-0.81-7.14-0.3-10.69-0.41c0.06,3.71-0.22,7.43,0.17,11.13c3.25,1.75,7.39,0.641,10.97,0.711c3.84-0.12,5.68-3.94,8.42-5.99
		c-0.63,2.75-1.74,5.34-2.86,7.92c-9.03-0.35-18.14,0.57-27.1-0.47c2.11-0.75,5.86-0.69,5.36-3.94
		c-0.33-7.36,0.91-14.939-0.74-22.15C186.66,259.71,185.1,259.39,183.55,259.03z"/>
	<g>
		<path fill="#242021" d="M214.86,258.73c5.04-0.461,10.11-0.161,15.16-0.24c3.8,0.04,8.22,0.41,10.86,3.51
			c2.16,2.29,1.76,6.3-0.6,8.3c-1.73,1.5-4.01,2.03-6.1,2.801c2.85,3.1,5.47,6.419,8.46,9.399c1.95,2.17,5,2.46,7.46,3.8
			c-3.25,0.311-6.52,0.181-9.77,0.25c-4.08-4.21-7.63-8.939-11.92-12.93c-0.72-0.06-2.16-0.2-2.88-0.27
			c0.04,3.5-0.25,7.02,0.14,10.5c0.49,1.83,2.93,1.219,4.31,1.83c0.02,0.209,0.06,0.63,0.08,0.839c-5.05-0.3-10.21,0.57-15.18-0.51
			c1.73-0.79,5.28-0.31,5.31-2.93c0.05-7.37,0.22-14.75-0.1-22.11C218.75,259.569,216.56,259.55,214.86,258.73z M225.51,260.569
			c-0.01,3.851-0.01,7.711,0,11.57c3.3-0.409,7.22-0.359,9.62-3.06c1.99-2.09,1.26-5.649-0.95-7.28
			C231.75,259.75,228.42,260.29,225.51,260.569z"/>
	</g>
	<path fill="#242021" d="M252.77,262.64c1.89-3.68,6.46-4.93,10.31-4.67c3.26-0.039,6.75,2.811,9.45-0.21
		c-0.11,3.53,0.29,7.12-0.45,10.61c-1.1-3.96-3.62-7.97-8.09-8.439c-3.12-1.011-8.95,1.389-7.34,5.27
		c4.54,5.069,12.55,5.03,16.98,10.31c2.35,2.851,1.05,7.37-1.88,9.31c-4.93,3.641-11.46,2.141-16.86,0.541
		c-0.78,0.659-1.57,1.32-2.35,1.979c0.02-3.56-0.39-7.18,0.39-10.68c1.05,4.34,4.34,8.21,9.05,8.46c3.41,0.819,9.65-1.4,7.69-5.83
		c-4.07-5.06-11.71-5.13-16.03-9.99C251.97,267.55,251.52,264.75,252.77,262.64z"/>
	<path fill="#242021" d="M277.91,258.99c5.24-0.84,10.78-0.82,16.02,0c-1.8,0.81-5.39,0.26-5.37,3
		c-0.09,6.979-0.14,13.97,0.02,20.949c0.01,2.791,3.57,2.33,5.45,3.161c-5.34,0.58-10.86,0.779-16.18-0.061
		c1.64-0.46,3.32-0.81,4.94-1.359c1.32-3.7,0.49-7.761,0.71-11.62c-0.24-4.241,0.63-8.66-0.69-12.761
		C281.2,259.75,279.54,259.42,277.91,258.99z"/>
	<g>
		<path fill="#242021" d="M294.67,258.99c3.69-0.99,7.57-0.31,11.35-0.5c6.14,0.07,12.96-0.43,18.3,3.21
			c5.52,3.61,7.04,11.67,3.71,17.26c-4.71,7.82-14.96,7.8-23.01,7.54c-3.46-0.11-7,0.39-10.4-0.48c1.67-0.75,4.17-0.35,5.29-2.039
			c0.72-4.601,0.17-9.291,0.34-13.931c-0.12-3.23,0.43-6.6-0.62-9.73C298.01,259.76,296.32,259.431,294.67,258.99z M305.25,260.77
			c0,7.82,0,15.65,0,23.48c4.61,0.77,9.76,0.8,13.72-2.04c6.05-4.24,6.42-14.26,0.67-18.91
			C315.67,259.939,310.12,259.87,305.25,260.77z"/>
	</g>
	<g>
		<path fill="#242021" d="M347.37,258.01c0.3,0.01,0.89,0.021,1.19,0.03c4.38,8.13,8.34,16.49,12.75,24.61
			c1.01,2.14,3.459,2.58,5.459,3.35c1.62-0.71,4.061-0.39,5.12-2.01c0.74-4.61,0.2-9.31,0.36-13.96c-0.11-3.24,0.41-6.6-0.65-9.73
			c-1.56-0.53-3.17-0.86-4.739-1.3c4.3-1.061,8.779-0.27,13.159-0.51c6.33,0.029,13.8-0.04,18.41,5.05
			c5.35,5.47,4.19,15.63-2.369,19.649c-6.83,4.5-15.351,3.08-23.061,3.32c-7.061-0.35-14.12,0.31-21.18-0.18
			c1.4-0.8,3.2-1.11,4.24-2.391c-0.7-2.379-1.99-4.509-3.1-6.699c-4.31,0.01-8.61,0.029-12.92-0.01
			c-1.28,2.229-2.45,4.52-3.53,6.859c1.59,0.729,3.22,1.4,4.78,2.229c-4.05,0.181-8.18,0.561-12.18-0.25
			c1.94-0.88,4.33-1.389,5.29-3.529C338.87,274.439,342.88,266.09,347.37,258.01z M377.25,260.77c0,7.82,0,15.65,0,23.471
			c4.62,0.779,9.8,0.81,13.76-2.06c5.81-4.07,6.43-13.561,1.221-18.37C388.3,259.98,382.33,259.811,377.25,260.77z M346.57,264.76
			c-1.98,3.54-3.78,7.18-5.7,10.75c3.75-0.01,7.5-0.02,11.26-0.01C350.29,271.91,348.41,268.351,346.57,264.76z"/>
	</g>
	<path fill="#242021" d="M423.22,262.11c5.98-5.11,14.66-5.021,21.66-2.23c0.79-0.66,1.24-2.1,2.49-1.85
		c0.43,3.4,0.6,6.84,0.71,10.27c-1.44-2.01-2.44-4.369-4.27-6.06c-5.44-4.54-15.36-3.32-18.261,3.59c-2.1,5-2.17,11.67,1.8,15.79
		c3.551,3.34,8.98,4.11,13.57,2.85c3.29-0.869,5.391-3.71,8.03-5.64c-1,4.17-5.181,6.68-9.07,7.71
		c-6.42,1.35-14.061,0.33-18.561-4.859C416.34,276.14,417.47,266.689,423.22,262.11z"/>
	<g>
		<path fill="#242021" d="M468.439,258.05c0.301-0.01,0.9-0.04,1.2-0.05c4.41,8.069,8.32,16.41,12.68,24.51
			c0.96,2.28,3.57,2.65,5.581,3.57c-4.811,0.83-9.74,0.38-14.59,0.28c1.199-0.771,2.5-1.32,3.859-1.78
			c-0.48-2.641-1.84-4.99-3.05-7.34c-4.33,0.02-8.66,0.02-12.98-0.01c-1.21,2.209-2.54,4.38-3.27,6.8
			c1.37,1.06,3.13,1.439,4.64,2.289c-3.98,0.311-7.98,0.23-11.96,0.07c1.94-1.25,4.311-2.18,5.311-4.439
			C460.15,274.04,464.13,265.95,468.439,258.05z M467.61,264.73c-1.771,3.64-3.73,7.189-5.63,10.76c3.76,0.01,7.51,0.01,11.27,0
			C471.43,271.87,469.54,268.28,467.61,264.73z"/>
	</g>
	<path fill="#242021" d="M483.569,258.52c9.331-0.039,18.661-0.02,27.991-0.02c0.159,2.47,0.3,4.939,0.319,7.41
		c-1.12-1.51-1.86-3.32-3.25-4.61c-2.71-1.18-5.76-0.72-8.63-0.81c0.13,7.56-0.29,15.13,0.23,22.68
		c0.02,2.431,3.14,1.99,4.789,2.511c-0.02,0.22-0.06,0.639-0.08,0.85c-5.09-0.311-10.289,0.57-15.3-0.521
		c1.73-0.79,5.24-0.29,5.3-2.94c0.16-7.529,0.011-15.06,0.061-22.589c-2.67,0.08-5.431-0.28-7.98,0.649
		c-1.899,0.801-2.27,3.07-3.27,4.64C483.061,263.4,483.52,260.931,483.569,258.52z"/>
	<g>
		<path fill="#242021" d="M525.43,258.561c6.34-1.491,13.89-0.57,18.49,4.449c4.891,5.07,4.88,13.91,0,18.98
			c-7.939,8.279-24.91,6.54-29.03-4.89C511.96,269.27,517.42,260.26,525.43,258.561z M526.3,260.52
			c-3.43,1.351-5.271,4.98-5.88,8.44c-0.52,4.229-0.38,8.92,2.22,12.51c2.921,4.141,9.07,4.83,13.4,2.67
			c3.479-1.649,5.021-5.62,5.46-9.22c0.47-4.05-0.1-8.5-2.61-11.83C535.95,259.42,530.46,258.96,526.3,260.52z"/>
	</g>
	<path fill="#242021" d="M549.67,258.99c5.46-0.82,11.24-0.851,16.7,0.02c-1.96,0.9-5.81,0.08-6.04,2.99
		c-0.19,7.27-0.061,14.561-0.04,21.84c4.12,1.061,8.529,0.891,12.7,0.19c3.18-0.75,4.5-4,6.689-6.07
		c-0.58,2.979-1.81,5.771-2.949,8.56c-9.021-0.38-18.161,0.67-27.08-0.529c1.739-0.771,5.26-0.28,5.3-2.96
		c0.09-7.021,0.1-14.05-0.011-21.07C555.02,259.23,551.38,259.8,549.67,258.99z"/>
	<path fill="#242021" d="M582.01,258.48c5.1,0.289,10.301-0.561,15.33,0.5c-1.68,0.45-3.38,0.789-5.01,1.38
		c-1.03,3.439-0.45,7.1-0.58,10.64c0.15,4.319-0.38,8.689,0.35,12.97c1.07,1.711,3.59,1.29,5.271,2.04
		c-5.021,1.08-10.22,0.2-15.301,0.53c-0.02-0.221-0.069-0.65-0.089-0.87c1.77-0.439,4.799-0.15,4.68-2.77
		c0.15-6.931,0.159-13.891,0-20.82c0.09-2.62-2.86-2.32-4.66-2.75C582,259.12,582.01,258.689,582.01,258.48z"/>
	<path fill="#242021" d="M603.38,263.319c5.71-6.06,15.29-6.659,22.63-3.449c0.94-0.77,1.891-1.52,2.86-2.25
		c0.27,3.53,0.69,7.061,0.489,10.61c-1.64-2.5-2.81-5.601-5.609-7.061c-4.62-2.55-11.08-2.14-14.83,1.77
		c-3.439,3.931-3.88,9.761-2.57,14.63c2.22,7.041,11.4,9.07,17.58,6.301c2.631-1.02,4.03-3.99,6.85-4.63
		c-4.84,9.279-18.46,10.079-26.189,4.149C598.35,278.75,598.04,268.76,603.38,263.319z"/>
	<g>
		<path fill="#242021" d="M650.069,257.939c1.581-0.31,1.811,1.73,2.53,2.681c3.49,7.13,7.17,14.17,10.78,21.25
			c1.021,2.53,3.75,3.27,5.939,4.48c-4.939,0.229-9.89,0.27-14.819-0.011c1.14-0.81,2.46-1.17,3.83-1.45
			c0.32-2.85-1.63-5.2-2.79-7.62c-4.351-0.029-8.69-0.02-13.03-0.01c-1.19,2.28-2.37,4.56-3.41,6.91c1.641,0.681,3.32,1.28,5,1.92
			c-4.07,0.771-8.25,0.46-12.35,0.141c1.75-0.99,4.029-1.471,5.02-3.42C641.45,274.66,645.34,266.061,650.069,257.939z
			 M643.49,275.49c3.75,0.01,7.51,0.01,11.27,0c-1.94-3.54-3.71-7.16-5.62-10.71C647.24,268.34,645.33,271.89,643.49,275.49z"/>
	</g>
	<path fill="#242021" d="M88.49,303.25c4.29-2.03,8.97-0.46,13.26,0.689c0.67-0.789,1.35-1.56,2.04-2.329
		c0.27,3.62,0.32,7.26,0.1,10.89c-1.92-2.061-2.18-5.399-4.87-6.77c-3.33-2.101-8.64-2.4-11.02,1.25c-1.29,2.62,1.61,4.47,3.59,5.45
		c4.819,2.689,11.22,3.659,14.25,8.739c1.75,4.28-1.92,8.721-6,9.7c-4.67,1.58-9.431-0.14-14.02-1.07c-0.49,0.6-1.46,1.81-1.95,2.41
		c-0.14-3.68-0.27-7.38,0.09-11.05c1.51,2.409,2.32,5.521,5.02,6.93c3.5,1.87,8.39,2.25,11.58-0.45c1.3-1.45,1.24-3.63-0.23-4.92
		c-4.73-4.34-12.34-4.59-16.15-10.09C82.01,308.98,84.77,304.47,88.49,303.25z"/>
	<g>
		<path fill="#242021" d="M126.67,302.4c0.25-0.07,0.74-0.22,0.99-0.3c4.42,8.08,8.291,16.46,12.68,24.56
			c1,2.39,3.68,2.92,5.78,3.949c-4.99,0.241-10,0.201-14.99,0.04c1.32-0.89,3.83-0.819,4.13-2.6c-0.68-2.34-1.98-4.42-3.1-6.55
			c-4.33,0.02-8.66-0.061-12.98,0.09c-1.189,2.35-2.53,4.67-3.17,7.25c1.53,0.53,3.1,1,4.54,1.74c-3.94,0.22-7.95,0.46-11.86-0.21
			c1.9-0.82,4.06-1.551,5.03-3.56C118.21,318.77,122.18,310.439,126.67,302.4z M120.22,319.75c3.72-0.01,7.439,0,11.16-0.01
			c-1.87-3.56-3.74-7.11-5.51-10.721C124.04,312.62,122.14,316.189,120.22,319.75z"/>
	</g>
	<g>
		<path fill="#242021" d="M249.35,302.13c0.24,0.06,0.74,0.17,0.98,0.221c4.35,8.089,8.25,16.43,12.62,24.51
			c0.99,2.26,3.61,2.68,5.58,3.77c-4.97,0.229-9.94,0.16-14.91,0.011c1.53-0.73,3.07-1.44,4.55-2.271
			c-1.13-2.26-2.25-4.52-3.35-6.79c-4.31-0.13-8.62-0.07-12.93-0.08c-1.05,2.37-3.28,4.67-2.99,7.351
			c1.37,0.68,2.82,1.17,4.23,1.759c-3.97,0.23-7.95,0.171-11.93,0.091c1.9-1.131,4.17-2.011,5.2-4.12
			C240.84,318.5,244.83,310.17,249.35,302.13z M248.39,309.01c-1.85,3.601-3.73,7.19-5.66,10.75c3.72-0.02,7.43-0.01,11.15-0.029
			C252.05,316.149,250.12,312.63,248.39,309.01z"/>
	</g>
	<path fill="#242021" d="M268.28,314.899c1.32-6.469,7.18-11.319,13.58-12.299c4.78-1.051,9.57,0.199,14.15,1.51
		c0.55-0.841,1.12-1.671,1.69-2.49c0.61,3.41,1.08,6.88,0.84,10.35c-1.86-2.59-3.42-5.729-6.56-6.979
		c-4.55-1.87-10.28-1.36-14.05,1.97c-5.95,5.56-5.01,16.76,2.13,20.91c4.1,2.61,9.24,2.15,13.67,0.71
		c-0.06-3.69,0.27-7.41-0.23-11.07c-1.39-0.8-3.01-0.909-4.54-1.19c0.03-0.219,0.09-0.639,0.12-0.859
		c4.74,0.229,9.52-0.391,14.22,0.43c-1.32,0.44-2.62,0.95-3.88,1.53c-0.91,3.79-0.22,7.811-0.41,11.7
		c-7.11,2.8-15.37,3.41-22.5,0.39C270.97,327.189,266.94,320.96,268.28,314.899z"/>
	<g>
		<path fill="#242021" d="M317.45,302.681c5.78-1.2,12.39-0.131,16.76,4.089c4.86,4.311,5.76,12.25,2.17,17.62
			c-6.94,10.61-26.5,9.3-30.62-3.189C302.71,313.02,309.11,303.91,317.45,302.681z M318.38,304.53c-4.19,1.06-6.58,5.32-7.06,9.359
			c-0.66,4.791,0.05,10.48,3.97,13.78c4.7,3.56,12.71,2.55,15.53-2.93c2.34-4.61,2.3-10.351,0.35-15.07
			C329.16,304.84,323.11,302.99,318.38,304.53z"/>
	</g>
	<path fill="#242021" d="M439.529,308.45c5.99-7.23,16.601-7.32,24.781-4.27c0.229-0.641,0.68-1.921,0.909-2.57
		c1.87,3.06,1.3,6.84,1.65,10.26c-2.11-2.181-3.29-5.351-6.22-6.64c-4.461-2.03-10.25-1.78-14.131,1.39
		c-6.289,5.17-5.64,16.29,1.041,20.86c4.199,3.01,9.899,2.8,14.5,0.83c-0.19-3.4,0.229-6.851-0.351-10.221
		c-0.62-1.859-3.04-1.271-4.521-1.79c-0.01-0.189-0.01-0.59-0.01-0.79c4.58-0.029,9.15,0.01,13.73-0.05
		c0.029,0.2,0.08,0.601,0.109,0.8c-1.24,0.51-3.17,0.271-3.68,1.83c-0.71,3.62-0.21,7.36-0.32,11.04
		c-8.279,3.28-18.7,3.721-26.08-1.91C435.24,322.76,434.7,313.76,439.529,308.45z"/>
	<g>
		<path fill="#242021" d="M523.22,304.25c0.45-0.899,1.03-1.7,1.761-2.39c5.029,8.25,8.72,17.25,13.539,25.63
			c1.12,1.71,3.33,2.1,5,3.159c-4.89,0.161-9.789,0.21-14.67-0.069c1.41-0.649,2.86-1.189,4.33-1.72
			c-0.75-2.63-2.04-5.041-3.38-7.391c-4.23,0.05-8.45,0.05-12.67-0.01c-1.479,2.37-2.87,4.83-3.5,7.58
			c1.61,0.391,3.271,0.74,4.78,1.48c-4.04,0.399-8.11,0.229-12.16,0.169c1.9-1.159,4.279-1.949,5.3-4.109
			C515.54,319.189,519.319,311.689,523.22,304.25z M517.9,319.77c3.709-0.029,7.41-0.029,11.119-0.02
			c-1.81-3.569-3.729-7.09-5.51-10.681C521.67,312.649,519.76,316.2,517.9,319.77z"/>
	</g>
	<g>
		<path fill="#242021" d="M607.24,309.23c5.109-7.591,16.32-8.891,23.979-4.62c6.05,3.24,9,11.26,6.17,17.579
			c-1.89,4.88-6.7,7.551-11.36,9.21c3.261,4.271,8.211,6.301,13.261,7.601h-3.69c-5.57-0.75-10.99-2.649-15.63-5.84
			c-3.569-2.66-8.28-3.5-11.35-6.85C604.189,321.92,603.74,314.3,607.24,309.23z M618.41,304.48c-7.85,2.33-8.82,12.7-6.17,19.239
			c2.57,7.521,14.449,8.24,18.199,1.4c2.681-4.81,2.721-11,0.33-15.92C628.6,304.73,622.95,303.061,618.41,304.48z"/>
	</g>
	<g>
		<path fill="#242021" d="M0,303c5.34,0.01,10.68-0.02,16.01-0.02c4.41,0.05,9.11,0.459,12.831,3.069
			c5.99,3.9,7.22,13.061,2.87,18.62c-3.03,3.87-8,5.641-12.77,6.011C12.63,330.899,6.31,330.67,0,330.76v-0.81
			c1.46-0.25,2.91-0.49,4.36-0.75c0.64-7.61,0.51-15.301,0.2-22.92c0.09-2.38-3.02-1.95-4.56-2.6V303z M9.78,305.069
			c-0.07,7.83,0.03,15.661-0.061,23.5c4.64,0.761,9.851,0.9,13.83-2.009c6.271-4.33,6.35-14.921,0.1-19.311
			C19.68,304.311,14.45,304.51,9.78,305.069z"/>
	</g>
	<path fill="#242021" d="M37,303c8.73-0.01,17.46,0.02,26.19-0.01c0.22,2.25,0.4,4.51,0.42,6.779c-1.75-1.399-2.01-4.47-4.51-4.819
		c-4.1-0.45-8.23-0.1-12.35-0.19c0.01,3.49,0,6.98,0,10.471c3.38-0.041,6.77,0.229,10.12-0.15c2.16-0.3,2.19-3.02,3.16-4.479
		c0.8,3.719,0.7,7.619,0.03,11.35c-1-1.47-1.09-4.02-3.09-4.511C53.6,316.79,50.16,317.03,46.76,317
		c-0.01,3.95-0.1,7.899,0.18,11.84c5.35-0.33,12.2,2.04,16.2-2.7c1.01-1.06,2.04-2.109,3.14-3.079c-0.58,2.67-1.65,5.189-2.74,7.68
		c-8.83,0.03-17.66,0-26.5,0.02l-0.07-0.829c1.61-0.33,4.439,0.02,4.66-2.221c0.22-7.149,0.19-14.33,0.02-21.49
		c-0.12-2.39-2.98-2.109-4.65-2.39V303z"/>
	<path fill="#242021" d="M145,303c3.21,0,6.43,0,9.65,0c6.76,6.811,13.56,13.58,20.35,20.36c-0.03-6.16,0.07-12.33-0.08-18.49
		c-1.8-0.56-3.65-0.97-5.37-1.74c4.22-0.311,8.46-0.061,12.7-0.13l0.04,0.77c-1.53,0.49-4.36-0.029-4.61,2.2
		c-0.54,8.6,0.17,17.25-0.36,25.85c-8.03-7.199-15.33-15.18-23.07-22.689c0.01,5.28,0,10.57-0.02,15.86
		c0.13,1.399-0.21,3.07,0.83,4.22c1.26,0.479,2.63,0.51,3.96,0.689l-0.02,0.86c-4-0.01-7.99-0.01-11.99-0.01l-0.04-0.84
		c1.65-0.37,4.35,0.159,4.67-2.1c0.18-6.931,0.2-13.891-0.01-20.82c-1-2.41-4.28-2.89-6.63-3.18V303z"/>
	<path fill="#242021" d="M184.51,303.01c9.31-0.06,18.62,0.06,27.93-0.06c0.22,2.46,0.34,4.939,0.18,7.42
		c-1.28-1.75-1.82-4.41-4.13-5.07c-2.46-0.54-5-0.25-7.49-0.31c0.08,7.39-0.16,14.779,0.1,22.159c-0.18,2.73,3.03,2.581,4.9,2.761
		v0.84c-5.14-0.101-10.29,0.26-15.42-0.25c1.87-0.95,5.39-0.51,5.32-3.34c0.26-7.38,0.01-14.78,0.1-22.17
		c-2.5,0.06-5.05-0.23-7.51,0.31c-2.31,0.67-2.82,3.35-4.1,5.09C184.24,307.931,184.36,305.47,184.51,303.01z"/>
	<path fill="#242021" d="M214.57,303.49c5.04-1.12,10.3-0.2,15.43-0.49v0.819c-1.65,0.331-4.52-0.029-4.64,2.351
		c-0.3,6.261-0.02,12.54-0.12,18.811c0.17,1.51-0.42,3.689,1.38,4.419c1.11,0.241,2.24,0.411,3.38,0.531v0.819
		c-5.14-0.101-10.29,0.25-15.42-0.25c1.71-0.681,3.53-1.03,5.3-1.479c0.68-8.021,0.4-16.121,0.16-24.16
		C218.23,304.34,216.39,303.95,214.57,303.49z"/>
	<g>
		<path fill="#242021" d="M354,303c8.35,0.41,16.939-1.03,25.12,1.14c7.75,2.061,11.819,11.811,7.86,18.78
			c-3.221,6.02-10.601,8.08-16.99,7.851c-5.33-0.021-10.66-0.021-15.98-0.011l-0.02-0.84c1.55-0.359,4.47,0.101,4.69-2.09
			c0.14-7.27,0.12-14.561,0-21.83c-0.11-2.24-3.13-1.84-4.68-2.17V303z M364,305.12c0.01,7.84-0.02,15.68,0.02,23.52
			c4.75,0.66,10.16,0.82,14.08-2.409c5.711-4.411,5.84-14.13,0.131-18.591C374.29,304.319,368.811,304.41,364,305.12z"/>
	</g>
	<path fill="#242021" d="M391,303c8.85,0.04,17.7-0.08,26.561,0.061c0.039,2.31,0.279,4.659-0.32,6.92
		c-1.16-1.891-1.62-4.95-4.33-5.11c-3.96-0.31-7.94-0.04-11.91-0.11c0,3.49,0,6.98,0,10.48c3.279-0.04,6.561,0.18,9.83-0.101
		c2.3-0.25,2.359-3.05,3.41-4.62c0.89,3.44,0.43,7.021,0.51,10.521c-0.221,0.13-0.66,0.38-0.88,0.5c-0.74-1.53-0.96-3.76-2.95-4.141
		c-3.27-0.589-6.609-0.369-9.92-0.399c0.061,3.67-0.16,7.351,0.1,11.01c0.22,0.221,0.67,0.671,0.891,0.89
		c3.38,0.221,6.779,0.181,10.16,0.021c3.779-0.01,5.479-3.9,8.379-5.63c-0.739,2.57-1.799,5.021-2.859,7.47
		c-8.891-0.01-17.78-0.01-26.67-0.01v-0.83c1.49-0.3,3.29-0.05,4.48-1.21c0.869-3.859,0.409-7.859,0.52-11.79
		c-0.1-3.9,0.319-7.859-0.46-11.71c-1.06-1.41-3.03-1.06-4.54-1.38V303z"/>
	<path fill="#242021" d="M471.13,303.569c5-1.289,10.3-0.239,15.431-0.569l-0.07,0.79c-1.5,0.44-4.641-0.09-4.62,2.22
		c-0.11,6.01-0.46,12.101,0.26,18.08c0.649,4.021,5.23,5.54,8.8,5.36c3.34-0.27,7.14-1.34,8.91-4.44
		c1.479-3.46,0.74-7.32,0.91-10.96c-0.17-3.05,0.439-6.21-0.42-9.17c-1.23-0.979-2.9-0.779-4.33-1.05V303c4,0,8,0,12,0v0.819
		c-1.66,0.361-4.27-0.02-4.63,2.221c-0.54,5.99,0.47,12.08-0.521,18.04c-1.16,5.29-7.03,7.44-11.899,7.43
		c-5.16,0.19-12.061-0.88-13.8-6.61c-1.5-6.359-0.07-12.989-0.84-19.419C475.48,303.51,472.7,304.36,471.13,303.569z"/>
	<path fill="#242021" d="M537.77,303.01c5.42,0.271,10.99-0.659,16.311,0.521c-1.23,0.789-4.801,0.06-4.57,2.32
		c2.45,3.939,5.71,7.289,8.43,11.039c2.811-3.92,6.461-7.32,8.41-11.8c-1.5-0.67-3.02-1.32-4.479-2.04c4.54,0,9.11-0.35,13.63,0.24
		c-2.13,0.87-4.689,1.13-6.23,3.021c-3.569,4.05-6.689,8.459-10.02,12.699c0.061,3.19-0.21,6.4,0.189,9.58
		c1.13,1.32,3.021,1.011,4.561,1.33v0.84c-5.12-0.279-10.36,0.61-15.4-0.529c1.67-0.721,4.54-0.061,5.28-2.17
		c0.28-2.921,0.09-5.851,0.09-8.761c-3.37-4.05-6.61-8.21-9.94-12.29C542.54,304.88,539.939,304.181,537.77,303.01z"/>
	<g>
		<path fill="#242021" d="M573.859,326.939c4.621-8.319,8.74-16.92,13.341-25.25c5.36,8.011,8.819,17.13,13.649,25.46
			c1.101,2.04,3.59,2.431,5.49,3.451c-4.939,0.25-9.9,0.229-14.84,0.029c1.41-0.771,2.85-1.44,4.29-2.17
			c-1.03-2.391-2.21-4.69-3.431-6.96c-4.33,0.02-8.659-0.061-12.979,0.09c-1,2.36-2.66,4.5-3.11,7.07
			c1.471,0.771,3.07,1.32,4.601,1.97c-4.07,0.21-8.14,0.181-12.21-0.01C570.529,329.62,572.819,328.97,573.859,326.939z
			 M580.47,319.75c3.681-0.01,7.36,0,11.04,0c-1.76-3.561-3.59-7.09-5.449-10.59C584.15,312.67,582.27,316.189,580.47,319.75z"/>
	</g>
	<path fill="#242021" d="M640,303c5.17,0.08,10.359-0.189,15.529,0.12c-1.659,0.88-3.859,0.76-5.25,2.03
		c-0.649,4.56-0.119,9.21-0.289,13.81c-0.101,3.43,0.1,7.9,3.82,9.45c5.329,2.48,14.6,0.61,15.09-6.33
		c0.25-5.75,0.069-11.52,0.029-17.27c-1.79-0.48-3.619-0.86-5.4-1.311c4.33-0.79,8.99-0.92,13.301,0.04
		c-1.69,0.779-5.21,0.09-5.21,2.8c-0.42,5.511,0.18,11.05-0.24,16.55c-0.41,3.75-3.311,6.87-6.91,7.811
		c-4.7,1.21-9.89,1.199-14.409-0.69c-2.83-1.12-4.761-3.949-5.031-6.949c-0.699-5.88,0.061-11.811-0.42-17.7
		c-0.959-1.591-3.069-1.19-4.609-1.53V303z"/>
	<path fill="#242021" d="M678,303c5.16,0.29,10.46-0.66,15.529,0.53c-2.049,0.65-6.1,0.14-5.71,3.39
		c-0.119,6.69-0.149,13.391,0.021,20.08c-0.18,3.101,3.58,2.5,5.59,3.47c-5.31,0.48-10.68,0.381-16,0.1
		c1.86-1.119,5.51-0.549,5.271-3.579c0.05-6.94,0.17-13.89-0.061-20.82c-0.159-2.351-3-2.05-4.64-2.351V303z"/>
	<path fill="#242021" d="M694.13,303.67c5.17-1.51,10.78-0.27,16.13-0.67l0.01,0.83c-1.729,0.31-3.77-0.011-5.16,1.3
		c-1.239,4.84-0.35,9.92-0.619,14.87c0.189,2.819-0.57,5.99,0.869,8.561c4.03,0.279,8.17,0.5,12.17-0.181
		c3.19-0.67,4.23-4.13,6.701-5.84c-0.78,2.82-1.951,5.5-3,8.22c-9.011-0.119-18.021,0.221-27.011-0.18
		c1.57-0.59,3.21-0.979,4.771-1.649c0.99-3.2,0.34-6.641,0.51-9.94c-0.221-4.86,0.561-9.82-0.6-14.601
		C697.3,304.181,695.7,303.939,694.13,303.67z"/>
</g>
</svg>
